<svg viewBox="0 0 184 64" fill="none" xmlns="http://www.w3.org/2000/svg" class="sc-AxiKw eSbheu iconSvg"><path fill-rule="evenodd" clip-rule="evenodd" d="M52.2039 8.50019H9.28466L12.3813 0H55.3005L52.2039 8.50019ZM50.6545 12.7499H7.73447L4.63783 21.2501H47.5578L50.6545 12.7499ZM46.0159 25.4998H3.09664L0 34H42.9193L46.0159 25.4998Z" fill="#00AAFF"></path><path fill-rule="evenodd" clip-rule="evenodd" d="M157.785 55.4413H165.622C168.595 55.4413 170.397 54.7351 171.658 53.1474C172.289 52.3527 173.19 50.9411 173.19 48.2941C173.19 45.6471 172.289 43.794 170.487 42.4709C169.406 41.6763 167.964 41.2355 165.532 41.2355H157.785V55.4413ZM147.424 64V13H181.297L178.325 21.5595H157.785V32.8529H166.163C172.92 32.8529 176.433 34.4414 178.865 36.4707C180.757 38.0592 184 41.5885 184 48.5588C184 55.4413 180.667 59.2352 177.874 61.1761C174.631 63.3823 171.208 64 164.271 64H147.424ZM117.426 64V21.5595H102.382V13H144.182L141.209 21.5595H127.876V64H117.426ZM75.7155 33.3829H81.5714C83.3724 33.3829 84.2732 33.3829 85.1749 33.1175C87.6073 32.4121 89.138 30.2944 89.138 27.3827C89.138 23.9411 87.517 22.4418 85.1749 21.7356C84.1837 21.471 83.1925 21.3826 81.2109 21.3826H75.7155V33.3829ZM75.8058 42.2063V55.6174H83.0126C85.1749 55.6174 87.1564 55.4413 88.5977 54.1174C90.0389 52.7943 90.6696 51.1181 90.6696 48.9118C90.6696 47.2356 90.2195 45.6471 89.3187 44.5002C87.7871 42.647 85.8951 42.2063 82.6522 42.2063H75.8058ZM92.4721 36.8238V37C94.4536 37.7061 96.3449 38.9415 97.3361 39.7354C100.399 42.2063 101.751 45.471 101.751 49.7057C101.751 56.6767 97.9668 61.7061 91.7511 63.2938C89.859 63.8231 87.8774 64 84.1837 64H65.3552V13H82.0215C85.4451 13 87.7871 13.1769 89.859 13.7062C95.8949 15.2947 99.8588 19.3533 99.8588 25.7942C99.8588 29.2359 98.5975 32.1475 96.5255 34.0883C95.6247 34.9707 94.3633 36.0299 92.4721 36.8238Z" fill="#0A2896"></path></svg>